<mxfile host="app.diagrams.net" agent="Mozilla/5.0 (Windows NT 10.0; Win64; x64) AppleWebKit/537.36 (KHTML, like Gecko) Chrome/132.0.0.0 Safari/537.36" version="26.0.11">
  <diagram name="Страница — 1" id="CH1VePZTQDIJwQ1Vv0k_">
    <mxGraphModel dx="1194" dy="708" grid="1" gridSize="10" guides="1" tooltips="1" connect="1" arrows="1" fold="1" page="1" pageScale="1" pageWidth="827" pageHeight="1169" math="0" shadow="0">
      <root>
        <mxCell id="0" />
        <mxCell id="1" parent="0" />
        <mxCell id="Zr4SxgWYRnPnKjNEoOFZ-3" style="edgeStyle=orthogonalEdgeStyle;rounded=0;orthogonalLoop=1;jettySize=auto;html=1;exitX=1;exitY=0.5;exitDx=0;exitDy=0;" edge="1" parent="1" source="LdiEW79fJLhFNMlzycQx-1" target="LdiEW79fJLhFNMlzycQx-9">
          <mxGeometry relative="1" as="geometry" />
        </mxCell>
        <mxCell id="LdiEW79fJLhFNMlzycQx-1" value="Start" style="ellipse;whiteSpace=wrap;html=1;aspect=fixed;" parent="1" vertex="1">
          <mxGeometry width="80" height="80" as="geometry" />
        </mxCell>
        <mxCell id="LdiEW79fJLhFNMlzycQx-11" style="edgeStyle=orthogonalEdgeStyle;rounded=0;orthogonalLoop=1;jettySize=auto;html=1;exitX=1;exitY=0.5;exitDx=0;exitDy=0;" parent="1" source="LdiEW79fJLhFNMlzycQx-9" target="LdiEW79fJLhFNMlzycQx-12" edge="1">
          <mxGeometry relative="1" as="geometry">
            <mxPoint x="270" y="170" as="targetPoint" />
          </mxGeometry>
        </mxCell>
        <mxCell id="LdiEW79fJLhFNMlzycQx-13" value="Выключен" style="edgeLabel;html=1;align=center;verticalAlign=middle;resizable=0;points=[];" parent="LdiEW79fJLhFNMlzycQx-11" vertex="1" connectable="0">
          <mxGeometry x="-0.4545" y="4" relative="1" as="geometry">
            <mxPoint x="20" y="4" as="offset" />
          </mxGeometry>
        </mxCell>
        <mxCell id="LdiEW79fJLhFNMlzycQx-15" style="edgeStyle=orthogonalEdgeStyle;rounded=0;orthogonalLoop=1;jettySize=auto;html=1;exitX=0.5;exitY=1;exitDx=0;exitDy=0;" parent="1" source="LdiEW79fJLhFNMlzycQx-9" target="LdiEW79fJLhFNMlzycQx-16" edge="1">
          <mxGeometry relative="1" as="geometry">
            <mxPoint x="150" y="260" as="targetPoint" />
          </mxGeometry>
        </mxCell>
        <mxCell id="LdiEW79fJLhFNMlzycQx-9" value="В. оператор" style="rhombus;whiteSpace=wrap;html=1;" parent="1" vertex="1">
          <mxGeometry x="110" width="80" height="80" as="geometry" />
        </mxCell>
        <mxCell id="LdiEW79fJLhFNMlzycQx-12" value="trigger_closeAll" style="rounded=0;whiteSpace=wrap;html=1;" parent="1" vertex="1">
          <mxGeometry x="330" y="12" width="120" height="60" as="geometry" />
        </mxCell>
        <mxCell id="LdiEW79fJLhFNMlzycQx-17" style="edgeStyle=orthogonalEdgeStyle;rounded=0;orthogonalLoop=1;jettySize=auto;html=1;exitX=1;exitY=0.5;exitDx=0;exitDy=0;fillColor=#f8cecc;strokeColor=#b85450;strokeWidth=2;" parent="1" source="LdiEW79fJLhFNMlzycQx-16" target="LdiEW79fJLhFNMlzycQx-18" edge="1">
          <mxGeometry relative="1" as="geometry">
            <mxPoint x="280" y="143" as="targetPoint" />
          </mxGeometry>
        </mxCell>
        <mxCell id="LdiEW79fJLhFNMlzycQx-20" value="Нет" style="edgeLabel;html=1;align=center;verticalAlign=middle;resizable=0;points=[];" parent="LdiEW79fJLhFNMlzycQx-17" vertex="1" connectable="0">
          <mxGeometry x="-0.1273" y="-2" relative="1" as="geometry">
            <mxPoint x="-2" y="-2" as="offset" />
          </mxGeometry>
        </mxCell>
        <mxCell id="LdiEW79fJLhFNMlzycQx-21" style="edgeStyle=orthogonalEdgeStyle;rounded=0;orthogonalLoop=1;jettySize=auto;html=1;exitX=0.5;exitY=1;exitDx=0;exitDy=0;" parent="1" source="LdiEW79fJLhFNMlzycQx-16" target="LdiEW79fJLhFNMlzycQx-22" edge="1">
          <mxGeometry relative="1" as="geometry">
            <mxPoint x="150" y="370" as="targetPoint" />
          </mxGeometry>
        </mxCell>
        <mxCell id="LdiEW79fJLhFNMlzycQx-16" value="Виалон" style="rhombus;whiteSpace=wrap;html=1;" parent="1" vertex="1">
          <mxGeometry x="110" y="103" width="80" height="80" as="geometry" />
        </mxCell>
        <mxCell id="Zr4SxgWYRnPnKjNEoOFZ-1" style="edgeStyle=orthogonalEdgeStyle;rounded=0;orthogonalLoop=1;jettySize=auto;html=1;exitX=0.5;exitY=1;exitDx=0;exitDy=0;entryX=1;entryY=0.5;entryDx=0;entryDy=0;fillColor=#f8cecc;strokeColor=#b85450;strokeWidth=2;" edge="1" parent="1" source="LdiEW79fJLhFNMlzycQx-18" target="LdiEW79fJLhFNMlzycQx-74">
          <mxGeometry relative="1" as="geometry">
            <Array as="points">
              <mxPoint x="450" y="173" />
              <mxPoint x="450" y="1075" />
            </Array>
          </mxGeometry>
        </mxCell>
        <mxCell id="Zr4SxgWYRnPnKjNEoOFZ-2" value="Блок обхода.&lt;br&gt;Если нет виалона, мы все скипаем" style="edgeLabel;html=1;align=center;verticalAlign=middle;resizable=0;points=[];" vertex="1" connectable="0" parent="Zr4SxgWYRnPnKjNEoOFZ-1">
          <mxGeometry x="-0.9171" y="-1" relative="1" as="geometry">
            <mxPoint x="-14" y="2" as="offset" />
          </mxGeometry>
        </mxCell>
        <mxCell id="LdiEW79fJLhFNMlzycQx-18" value="trigger_no_equipment&lt;br&gt;value=&#39;Wialon&#39;" style="rounded=0;whiteSpace=wrap;html=1;" parent="1" vertex="1">
          <mxGeometry x="370" y="113" width="130" height="60" as="geometry" />
        </mxCell>
        <mxCell id="LdiEW79fJLhFNMlzycQx-23" style="edgeStyle=orthogonalEdgeStyle;rounded=0;orthogonalLoop=1;jettySize=auto;html=1;exitX=1;exitY=0.5;exitDx=0;exitDy=0;entryX=0;entryY=0.5;entryDx=0;entryDy=0;" parent="1" source="LdiEW79fJLhFNMlzycQx-22" target="LdiEW79fJLhFNMlzycQx-24" edge="1">
          <mxGeometry relative="1" as="geometry">
            <mxPoint x="300" y="270" as="targetPoint" />
          </mxGeometry>
        </mxCell>
        <mxCell id="LdiEW79fJLhFNMlzycQx-25" value="Офлайн &amp;gt;72ч" style="edgeLabel;html=1;align=center;verticalAlign=middle;resizable=0;points=[];" parent="LdiEW79fJLhFNMlzycQx-23" vertex="1" connectable="0">
          <mxGeometry x="-0.1923" y="-1" relative="1" as="geometry">
            <mxPoint x="8" y="-1" as="offset" />
          </mxGeometry>
        </mxCell>
        <mxCell id="Zr4SxgWYRnPnKjNEoOFZ-10" style="edgeStyle=orthogonalEdgeStyle;rounded=0;orthogonalLoop=1;jettySize=auto;html=1;exitX=0.5;exitY=1;exitDx=0;exitDy=0;" edge="1" parent="1" source="LdiEW79fJLhFNMlzycQx-22" target="Zr4SxgWYRnPnKjNEoOFZ-5">
          <mxGeometry relative="1" as="geometry" />
        </mxCell>
        <mxCell id="LdiEW79fJLhFNMlzycQx-22" value="Онлайн" style="rhombus;whiteSpace=wrap;html=1;" parent="1" vertex="1">
          <mxGeometry x="110" y="230" width="80" height="80" as="geometry" />
        </mxCell>
        <mxCell id="LdiEW79fJLhFNMlzycQx-24" value="trigger_not_work&lt;br&gt;value=&#39;Wialon&#39;" style="rounded=0;whiteSpace=wrap;html=1;" parent="1" vertex="1">
          <mxGeometry x="300" y="240" width="120" height="60" as="geometry" />
        </mxCell>
        <mxCell id="LdiEW79fJLhFNMlzycQx-45" style="edgeStyle=orthogonalEdgeStyle;rounded=0;orthogonalLoop=1;jettySize=auto;html=1;exitX=1;exitY=0.5;exitDx=0;exitDy=0;" parent="1" edge="1" target="LdiEW79fJLhFNMlzycQx-30" source="LdiEW79fJLhFNMlzycQx-28">
          <mxGeometry relative="1" as="geometry">
            <mxPoint x="500" y="530" as="sourcePoint" />
            <mxPoint x="580" y="530" as="targetPoint" />
          </mxGeometry>
        </mxCell>
        <mxCell id="LdiEW79fJLhFNMlzycQx-49" value="Нет кордов" style="edgeLabel;html=1;align=center;verticalAlign=middle;resizable=0;points=[];" parent="LdiEW79fJLhFNMlzycQx-45" vertex="1" connectable="0">
          <mxGeometry x="-0.175" relative="1" as="geometry">
            <mxPoint x="32" as="offset" />
          </mxGeometry>
        </mxCell>
        <mxCell id="LdiEW79fJLhFNMlzycQx-57" style="edgeStyle=orthogonalEdgeStyle;rounded=0;orthogonalLoop=1;jettySize=auto;html=1;exitX=0.5;exitY=1;exitDx=0;exitDy=0;" parent="1" source="LdiEW79fJLhFNMlzycQx-28" target="LdiEW79fJLhFNMlzycQx-58" edge="1">
          <mxGeometry relative="1" as="geometry">
            <mxPoint x="350" y="680" as="targetPoint" />
          </mxGeometry>
        </mxCell>
        <mxCell id="LdiEW79fJLhFNMlzycQx-28" value="Координаты&lt;br&gt;аренды" style="rhombus;whiteSpace=wrap;html=1;" parent="1" vertex="1">
          <mxGeometry x="310" y="522" width="100" height="110" as="geometry" />
        </mxCell>
        <mxCell id="LdiEW79fJLhFNMlzycQx-30" value="Парсер 1с" style="rhombus;whiteSpace=wrap;html=1;" parent="1" vertex="1">
          <mxGeometry x="595" y="537" width="80" height="80" as="geometry" />
        </mxCell>
        <mxCell id="LdiEW79fJLhFNMlzycQx-33" value="trigger_no_docs_cords" style="rounded=0;whiteSpace=wrap;html=1;" parent="1" vertex="1">
          <mxGeometry x="575" y="667" width="145" height="60" as="geometry" />
        </mxCell>
        <mxCell id="LdiEW79fJLhFNMlzycQx-36" value="Триггеры" style="rounded=0;whiteSpace=wrap;html=1;" parent="1" vertex="1">
          <mxGeometry x="520" y="123" width="140" height="60" as="geometry" />
        </mxCell>
        <mxCell id="LdiEW79fJLhFNMlzycQx-55" style="edgeStyle=orthogonalEdgeStyle;rounded=0;orthogonalLoop=1;jettySize=auto;html=1;exitX=0.5;exitY=1;exitDx=0;exitDy=0;" parent="1" source="LdiEW79fJLhFNMlzycQx-44" target="LdiEW79fJLhFNMlzycQx-56" edge="1">
          <mxGeometry relative="1" as="geometry">
            <mxPoint x="150" y="727" as="targetPoint" />
          </mxGeometry>
        </mxCell>
        <mxCell id="LdiEW79fJLhFNMlzycQx-88" value="Да" style="edgeLabel;html=1;align=center;verticalAlign=middle;resizable=0;points=[];" parent="LdiEW79fJLhFNMlzycQx-55" vertex="1" connectable="0">
          <mxGeometry x="-0.3818" y="-4" relative="1" as="geometry">
            <mxPoint x="4" as="offset" />
          </mxGeometry>
        </mxCell>
        <mxCell id="Zr4SxgWYRnPnKjNEoOFZ-16" style="edgeStyle=orthogonalEdgeStyle;rounded=0;orthogonalLoop=1;jettySize=auto;html=1;exitX=1;exitY=0.5;exitDx=0;exitDy=0;entryX=0;entryY=0.5;entryDx=0;entryDy=0;" edge="1" parent="1" source="LdiEW79fJLhFNMlzycQx-44" target="LdiEW79fJLhFNMlzycQx-28">
          <mxGeometry relative="1" as="geometry" />
        </mxCell>
        <mxCell id="LdiEW79fJLhFNMlzycQx-44" value="На игнорируемом складе" style="rhombus;whiteSpace=wrap;html=1;" parent="1" vertex="1">
          <mxGeometry x="105" y="532" width="90" height="90" as="geometry" />
        </mxCell>
        <mxCell id="LdiEW79fJLhFNMlzycQx-50" style="edgeStyle=orthogonalEdgeStyle;rounded=0;orthogonalLoop=1;jettySize=auto;html=1;exitX=0.5;exitY=1;exitDx=0;exitDy=0;entryX=0.417;entryY=0.05;entryDx=0;entryDy=0;entryPerimeter=0;" parent="1" source="LdiEW79fJLhFNMlzycQx-30" target="LdiEW79fJLhFNMlzycQx-33" edge="1">
          <mxGeometry relative="1" as="geometry" />
        </mxCell>
        <mxCell id="LdiEW79fJLhFNMlzycQx-51" value="Есть в парсере 1С" style="edgeLabel;html=1;align=center;verticalAlign=middle;resizable=0;points=[];" parent="LdiEW79fJLhFNMlzycQx-50" vertex="1" connectable="0">
          <mxGeometry x="-0.1456" y="2" relative="1" as="geometry">
            <mxPoint as="offset" />
          </mxGeometry>
        </mxCell>
        <mxCell id="LdiEW79fJLhFNMlzycQx-56" value="Внутренний триггер in_ingored_storage" style="rounded=0;whiteSpace=wrap;html=1;" parent="1" vertex="1">
          <mxGeometry x="90" y="667" width="120" height="60" as="geometry" />
        </mxCell>
        <mxCell id="LdiEW79fJLhFNMlzycQx-59" style="edgeStyle=orthogonalEdgeStyle;rounded=0;orthogonalLoop=1;jettySize=auto;html=1;exitX=1;exitY=0.5;exitDx=0;exitDy=0;" parent="1" source="LdiEW79fJLhFNMlzycQx-58" target="LdiEW79fJLhFNMlzycQx-64" edge="1">
          <mxGeometry relative="1" as="geometry">
            <mxPoint x="620" y="800" as="targetPoint" />
          </mxGeometry>
        </mxCell>
        <mxCell id="LdiEW79fJLhFNMlzycQx-62" value="Есть корды аренды и виалона" style="edgeLabel;html=1;align=center;verticalAlign=middle;resizable=0;points=[];" parent="LdiEW79fJLhFNMlzycQx-59" vertex="1" connectable="0">
          <mxGeometry x="-0.25" y="1" relative="1" as="geometry">
            <mxPoint x="23" y="1" as="offset" />
          </mxGeometry>
        </mxCell>
        <mxCell id="LdiEW79fJLhFNMlzycQx-78" style="edgeStyle=orthogonalEdgeStyle;rounded=0;orthogonalLoop=1;jettySize=auto;html=1;exitX=0.5;exitY=1;exitDx=0;exitDy=0;" parent="1" source="LdiEW79fJLhFNMlzycQx-58" target="LdiEW79fJLhFNMlzycQx-77" edge="1">
          <mxGeometry relative="1" as="geometry" />
        </mxCell>
        <mxCell id="LdiEW79fJLhFNMlzycQx-58" value="Дистанция" style="rhombus;whiteSpace=wrap;html=1;" parent="1" vertex="1">
          <mxGeometry x="310" y="740" width="80" height="80" as="geometry" />
        </mxCell>
        <mxCell id="LdiEW79fJLhFNMlzycQx-65" style="edgeStyle=orthogonalEdgeStyle;rounded=0;orthogonalLoop=1;jettySize=auto;html=1;exitX=0.5;exitY=1;exitDx=0;exitDy=0;" parent="1" source="LdiEW79fJLhFNMlzycQx-64" target="LdiEW79fJLhFNMlzycQx-66" edge="1">
          <mxGeometry relative="1" as="geometry">
            <mxPoint x="635" y="920" as="targetPoint" />
          </mxGeometry>
        </mxCell>
        <mxCell id="LdiEW79fJLhFNMlzycQx-67" value="Дистанция между кордами&lt;div&gt;больше 5 КМ (danger_distance)&lt;/div&gt;" style="edgeLabel;html=1;align=center;verticalAlign=middle;resizable=0;points=[];" parent="LdiEW79fJLhFNMlzycQx-65" vertex="1" connectable="0">
          <mxGeometry x="-0.04" y="-3" relative="1" as="geometry">
            <mxPoint as="offset" />
          </mxGeometry>
        </mxCell>
        <mxCell id="LdiEW79fJLhFNMlzycQx-64" value="Дистанция2" style="rhombus;whiteSpace=wrap;html=1;" parent="1" vertex="1">
          <mxGeometry x="595" y="740" width="80" height="80" as="geometry" />
        </mxCell>
        <mxCell id="LdiEW79fJLhFNMlzycQx-66" value="trigger_distance&lt;br&gt;value=distance" style="rounded=0;whiteSpace=wrap;html=1;" parent="1" vertex="1">
          <mxGeometry x="575" y="940" width="120" height="60" as="geometry" />
        </mxCell>
        <mxCell id="LdiEW79fJLhFNMlzycQx-74" value="trigger_handler" style="swimlane;whiteSpace=wrap;html=1;" parent="1" vertex="1" collapsed="1">
          <mxGeometry x="290" y="1060" width="120" height="30" as="geometry">
            <mxRectangle x="250" y="1060" width="200" height="80" as="alternateBounds" />
          </mxGeometry>
        </mxCell>
        <mxCell id="LdiEW79fJLhFNMlzycQx-79" style="edgeStyle=orthogonalEdgeStyle;rounded=0;orthogonalLoop=1;jettySize=auto;html=1;exitX=0.5;exitY=1;exitDx=0;exitDy=0;" parent="1" source="LdiEW79fJLhFNMlzycQx-77" target="LdiEW79fJLhFNMlzycQx-74" edge="1">
          <mxGeometry relative="1" as="geometry" />
        </mxCell>
        <mxCell id="LdiEW79fJLhFNMlzycQx-87" value="&lt;span style=&quot;font-size: 12px; text-wrap-mode: wrap; background-color: rgb(251, 251, 251);&quot;&gt;Передаем все триггеры в функцию&lt;/span&gt;" style="edgeLabel;html=1;align=center;verticalAlign=middle;resizable=0;points=[];" parent="LdiEW79fJLhFNMlzycQx-79" vertex="1" connectable="0">
          <mxGeometry x="-0.0924" y="-2" relative="1" as="geometry">
            <mxPoint x="2" as="offset" />
          </mxGeometry>
        </mxCell>
        <mxCell id="LdiEW79fJLhFNMlzycQx-80" style="edgeStyle=orthogonalEdgeStyle;rounded=0;orthogonalLoop=1;jettySize=auto;html=1;exitX=0;exitY=0.5;exitDx=0;exitDy=0;" parent="1" source="LdiEW79fJLhFNMlzycQx-77" target="LdiEW79fJLhFNMlzycQx-83" edge="1">
          <mxGeometry relative="1" as="geometry">
            <mxPoint x="195" y="930" as="targetPoint" />
          </mxGeometry>
        </mxCell>
        <mxCell id="LdiEW79fJLhFNMlzycQx-82" value="Да" style="edgeLabel;html=1;align=center;verticalAlign=middle;resizable=0;points=[];" parent="LdiEW79fJLhFNMlzycQx-80" vertex="1" connectable="0">
          <mxGeometry x="-0.1429" relative="1" as="geometry">
            <mxPoint as="offset" />
          </mxGeometry>
        </mxCell>
        <mxCell id="LdiEW79fJLhFNMlzycQx-77" value="in_ingored_storage" style="rhombus;whiteSpace=wrap;html=1;" parent="1" vertex="1">
          <mxGeometry x="265" y="850" width="170" height="80" as="geometry" />
        </mxCell>
        <mxCell id="LdiEW79fJLhFNMlzycQx-83" value="Выключаем триггеры" style="swimlane;fontStyle=0;childLayout=stackLayout;horizontal=1;startSize=30;horizontalStack=0;resizeParent=1;resizeParentMax=0;resizeLast=0;collapsible=1;marginBottom=0;whiteSpace=wrap;html=1;" parent="1" vertex="1">
          <mxGeometry x="10" y="845" width="180" height="90" as="geometry" />
        </mxCell>
        <mxCell id="LdiEW79fJLhFNMlzycQx-84" value="&lt;span style=&quot;text-align: center;&quot;&gt;trigger_distance=False&lt;/span&gt;" style="text;strokeColor=none;fillColor=none;align=left;verticalAlign=middle;spacingLeft=4;spacingRight=4;overflow=hidden;points=[[0,0.5],[1,0.5]];portConstraint=eastwest;rotatable=0;whiteSpace=wrap;html=1;" parent="LdiEW79fJLhFNMlzycQx-83" vertex="1">
          <mxGeometry y="30" width="180" height="30" as="geometry" />
        </mxCell>
        <mxCell id="LdiEW79fJLhFNMlzycQx-85" value="&lt;span style=&quot;text-align: center;&quot;&gt;trigger_no_docs_cords=False&lt;/span&gt;" style="text;strokeColor=none;fillColor=none;align=left;verticalAlign=middle;spacingLeft=4;spacingRight=4;overflow=hidden;points=[[0,0.5],[1,0.5]];portConstraint=eastwest;rotatable=0;whiteSpace=wrap;html=1;" parent="LdiEW79fJLhFNMlzycQx-83" vertex="1">
          <mxGeometry y="60" width="180" height="30" as="geometry" />
        </mxCell>
        <mxCell id="LdiEW79fJLhFNMlzycQx-89" value="&lt;h1 style=&quot;margin-top: 0px;&quot;&gt;Process_Wialon&lt;/h1&gt;&lt;p&gt;Схема для проверки ТС с Виалоном.&lt;br&gt;После постановки триггера мы возвращаемся к проверке и идем далее по цепочке&lt;/p&gt;" style="text;html=1;whiteSpace=wrap;overflow=hidden;rounded=0;" parent="1" vertex="1">
          <mxGeometry x="510" y="10" width="295" height="110" as="geometry" />
        </mxCell>
        <mxCell id="LdiEW79fJLhFNMlzycQx-91" value="Проверка" style="rhombus;whiteSpace=wrap;html=1;" parent="1" vertex="1">
          <mxGeometry x="690" y="113" width="80" height="80" as="geometry" />
        </mxCell>
        <mxCell id="Zr4SxgWYRnPnKjNEoOFZ-6" style="edgeStyle=orthogonalEdgeStyle;rounded=0;orthogonalLoop=1;jettySize=auto;html=1;exitX=1;exitY=0.5;exitDx=0;exitDy=0;" edge="1" parent="1" source="Zr4SxgWYRnPnKjNEoOFZ-5" target="Zr4SxgWYRnPnKjNEoOFZ-7">
          <mxGeometry relative="1" as="geometry">
            <mxPoint x="260" y="390" as="targetPoint" />
          </mxGeometry>
        </mxCell>
        <mxCell id="Zr4SxgWYRnPnKjNEoOFZ-8" value="Нет" style="edgeLabel;html=1;align=center;verticalAlign=middle;resizable=0;points=[];" vertex="1" connectable="0" parent="Zr4SxgWYRnPnKjNEoOFZ-6">
          <mxGeometry x="-0.4" y="-3" relative="1" as="geometry">
            <mxPoint x="7" y="-3" as="offset" />
          </mxGeometry>
        </mxCell>
        <mxCell id="Zr4SxgWYRnPnKjNEoOFZ-11" style="edgeStyle=orthogonalEdgeStyle;rounded=0;orthogonalLoop=1;jettySize=auto;html=1;exitX=0.5;exitY=1;exitDx=0;exitDy=0;entryX=0.5;entryY=0;entryDx=0;entryDy=0;" edge="1" parent="1" source="Zr4SxgWYRnPnKjNEoOFZ-5" target="LdiEW79fJLhFNMlzycQx-44">
          <mxGeometry relative="1" as="geometry" />
        </mxCell>
        <mxCell id="Zr4SxgWYRnPnKjNEoOFZ-12" value="Да" style="edgeLabel;html=1;align=center;verticalAlign=middle;resizable=0;points=[];" vertex="1" connectable="0" parent="Zr4SxgWYRnPnKjNEoOFZ-11">
          <mxGeometry x="-0.1636" y="-1" relative="1" as="geometry">
            <mxPoint as="offset" />
          </mxGeometry>
        </mxCell>
        <mxCell id="Zr4SxgWYRnPnKjNEoOFZ-5" value="Координаты&lt;br&gt;Wialon" style="rhombus;whiteSpace=wrap;html=1;" vertex="1" parent="1">
          <mxGeometry x="100" y="350" width="100" height="80" as="geometry" />
        </mxCell>
        <mxCell id="Zr4SxgWYRnPnKjNEoOFZ-17" style="edgeStyle=orthogonalEdgeStyle;rounded=0;orthogonalLoop=1;jettySize=auto;html=1;exitX=0.5;exitY=1;exitDx=0;exitDy=0;entryX=0.5;entryY=0;entryDx=0;entryDy=0;" edge="1" parent="1" source="Zr4SxgWYRnPnKjNEoOFZ-7" target="LdiEW79fJLhFNMlzycQx-28">
          <mxGeometry relative="1" as="geometry">
            <Array as="points">
              <mxPoint x="360" y="420" />
            </Array>
          </mxGeometry>
        </mxCell>
        <mxCell id="Zr4SxgWYRnPnKjNEoOFZ-7" value="trigger_gps&lt;br&gt;value=&#39;Wialon&#39;" style="rounded=0;whiteSpace=wrap;html=1;" vertex="1" parent="1">
          <mxGeometry x="290" y="360" width="120" height="60" as="geometry" />
        </mxCell>
        <mxCell id="Zr4SxgWYRnPnKjNEoOFZ-18" value="trigger_no_equipment" style="swimlane;fontStyle=0;childLayout=stackLayout;horizontal=1;startSize=30;horizontalStack=0;resizeParent=1;resizeParentMax=0;resizeLast=0;collapsible=1;marginBottom=0;whiteSpace=wrap;html=1;fillColor=#f8cecc;strokeColor=#b85450;" vertex="1" parent="1">
          <mxGeometry x="510" y="310" width="140" height="120" as="geometry" />
        </mxCell>
        <mxCell id="Zr4SxgWYRnPnKjNEoOFZ-19" value="trigger_distance = False" style="text;strokeColor=none;fillColor=none;align=left;verticalAlign=middle;spacingLeft=4;spacingRight=4;overflow=hidden;points=[[0,0.5],[1,0.5]];portConstraint=eastwest;rotatable=0;whiteSpace=wrap;html=1;" vertex="1" parent="Zr4SxgWYRnPnKjNEoOFZ-18">
          <mxGeometry y="30" width="140" height="30" as="geometry" />
        </mxCell>
        <mxCell id="Zr4SxgWYRnPnKjNEoOFZ-20" value="trigger_gps = False" style="text;strokeColor=none;fillColor=none;align=left;verticalAlign=middle;spacingLeft=4;spacingRight=4;overflow=hidden;points=[[0,0.5],[1,0.5]];portConstraint=eastwest;rotatable=0;whiteSpace=wrap;html=1;" vertex="1" parent="Zr4SxgWYRnPnKjNEoOFZ-18">
          <mxGeometry y="60" width="140" height="30" as="geometry" />
        </mxCell>
        <mxCell id="Zr4SxgWYRnPnKjNEoOFZ-21" value="trigger_not_work = False" style="text;strokeColor=none;fillColor=none;align=left;verticalAlign=middle;spacingLeft=4;spacingRight=4;overflow=hidden;points=[[0,0.5],[1,0.5]];portConstraint=eastwest;rotatable=0;whiteSpace=wrap;html=1;" vertex="1" parent="Zr4SxgWYRnPnKjNEoOFZ-18">
          <mxGeometry y="90" width="140" height="30" as="geometry" />
        </mxCell>
        <mxCell id="Zr4SxgWYRnPnKjNEoOFZ-22" value="trigger_not_work" style="swimlane;fontStyle=0;childLayout=stackLayout;horizontal=1;startSize=30;horizontalStack=0;resizeParent=1;resizeParentMax=0;resizeLast=0;collapsible=1;marginBottom=0;whiteSpace=wrap;html=1;fillColor=#fff2cc;strokeColor=#d6b656;" vertex="1" parent="1">
          <mxGeometry x="650" y="310" width="140" height="130" as="geometry" />
        </mxCell>
        <mxCell id="Zr4SxgWYRnPnKjNEoOFZ-23" value="trigger_distance = False" style="text;strokeColor=none;fillColor=none;align=left;verticalAlign=middle;spacingLeft=4;spacingRight=4;overflow=hidden;points=[[0,0.5],[1,0.5]];portConstraint=eastwest;rotatable=0;whiteSpace=wrap;html=1;" vertex="1" parent="Zr4SxgWYRnPnKjNEoOFZ-22">
          <mxGeometry y="30" width="140" height="50" as="geometry" />
        </mxCell>
        <mxCell id="Zr4SxgWYRnPnKjNEoOFZ-24" value="trigger_gps = False" style="text;strokeColor=none;fillColor=none;align=left;verticalAlign=middle;spacingLeft=4;spacingRight=4;overflow=hidden;points=[[0,0.5],[1,0.5]];portConstraint=eastwest;rotatable=0;whiteSpace=wrap;html=1;" vertex="1" parent="Zr4SxgWYRnPnKjNEoOFZ-22">
          <mxGeometry y="80" width="140" height="50" as="geometry" />
        </mxCell>
        <mxCell id="Zr4SxgWYRnPnKjNEoOFZ-26" value="trigger_gps" style="swimlane;fontStyle=0;childLayout=stackLayout;horizontal=1;startSize=30;horizontalStack=0;resizeParent=1;resizeParentMax=0;resizeLast=0;collapsible=1;marginBottom=0;whiteSpace=wrap;html=1;fillColor=#dae8fc;strokeColor=#6c8ebf;" vertex="1" parent="1">
          <mxGeometry x="510" y="430" width="140" height="60" as="geometry" />
        </mxCell>
        <mxCell id="Zr4SxgWYRnPnKjNEoOFZ-27" value="trigger_distance = False" style="text;strokeColor=none;fillColor=none;align=left;verticalAlign=middle;spacingLeft=4;spacingRight=4;overflow=hidden;points=[[0,0.5],[1,0.5]];portConstraint=eastwest;rotatable=0;whiteSpace=wrap;html=1;" vertex="1" parent="Zr4SxgWYRnPnKjNEoOFZ-26">
          <mxGeometry y="30" width="140" height="30" as="geometry" />
        </mxCell>
        <mxCell id="Zr4SxgWYRnPnKjNEoOFZ-30" value="trigger_no_docs_cords" style="swimlane;fontStyle=0;childLayout=stackLayout;horizontal=1;startSize=30;horizontalStack=0;resizeParent=1;resizeParentMax=0;resizeLast=0;collapsible=1;marginBottom=0;whiteSpace=wrap;html=1;fillColor=#d5e8d4;strokeColor=#82b366;" vertex="1" parent="1">
          <mxGeometry x="650" y="430" width="140" height="60" as="geometry" />
        </mxCell>
        <mxCell id="Zr4SxgWYRnPnKjNEoOFZ-31" value="trigger_distance" style="text;strokeColor=none;fillColor=none;align=left;verticalAlign=middle;spacingLeft=4;spacingRight=4;overflow=hidden;points=[[0,0.5],[1,0.5]];portConstraint=eastwest;rotatable=0;whiteSpace=wrap;html=1;" vertex="1" parent="Zr4SxgWYRnPnKjNEoOFZ-30">
          <mxGeometry y="30" width="140" height="30" as="geometry" />
        </mxCell>
        <mxCell id="Zr4SxgWYRnPnKjNEoOFZ-34" value="Перезаписи в&amp;nbsp;trigger_handler" style="text;html=1;align=center;verticalAlign=middle;whiteSpace=wrap;rounded=0;fillColor=#ffe6cc;strokeColor=#d79b00;" vertex="1" parent="1">
          <mxGeometry x="510" y="280" width="280" height="30" as="geometry" />
        </mxCell>
      </root>
    </mxGraphModel>
  </diagram>
</mxfile>
